<?xml version="1.0" encoding="UTF-8"?> <!-- Generator: Adobe Illustrator 21.0.0, SVG Export Plug-In . SVG Version: 6.00 Build 0) --> <svg xmlns="http://www.w3.org/2000/svg" xmlns:xlink="http://www.w3.org/1999/xlink" version="1.1" id="shape" x="0px" y="0px" viewBox="0 0 33 33" style="enable-background:new 0 0 33 33;" xml:space="preserve"> <path id="bike-transmission" style="fill:#E83A3A;" d="M24.4,5.2c-1.9,0-3.4,1.5-3.4,3.4c0,1.9,1.5,3.4,3.4,3.4 c1.9,0,3.4-1.5,3.4-3.4C27.8,6.7,26.3,5.2,24.4,5.2z M24.4,10.7c-1.2,0-2.1-1-2.1-2.1c0-1.2,1-2.1,2.1-2.1c1.2,0,2.1,1,2.1,2.1 c0,0,0,0,0,0C26.5,9.8,25.6,10.7,24.4,10.7z M10.6,13c-0.2-0.3-0.7-0.3-0.9,0c0,0,0,0,0,0c-0.1,0.1-0.2,0.3-0.2,0.5 c0,0.2,0.1,0.3,0.2,0.5c0.2,0.3,0.7,0.3,0.9,0c0,0,0,0,0,0c0.1-0.1,0.2-0.3,0.2-0.5C10.8,13.3,10.8,13.1,10.6,13z M30.5,8.7 c0.3-0.2,0.4-0.6,0.2-0.9c-0.1-0.1-0.2-0.2-0.3-0.3C30.2,7.4,30,7.3,30,7.1c-0.1-0.2,0-0.4,0.1-0.6c0.2-0.3,0.2-0.7-0.1-0.9 c-0.1-0.1-0.3-0.1-0.4-0.1h0c-0.2,0-0.4-0.1-0.5-0.3c-0.1-0.2-0.2-0.4-0.1-0.6c0.1-0.3-0.1-0.7-0.4-0.8c-0.1,0-0.3,0-0.4,0 c-0.3,0.1-0.7,0-0.9-0.4c0-0.1,0-0.1,0-0.2c0-0.4-0.3-0.6-0.7-0.6c-0.1,0-0.3,0.1-0.4,0.2c-0.3,0.3-0.7,0.2-0.9,0 c0-0.1-0.1-0.1-0.1-0.2c-0.2-0.3-0.5-0.5-0.9-0.3c-0.1,0.1-0.2,0.2-0.3,0.3c-0.2,0.3-0.6,0.5-0.9,0.3c-0.1,0-0.1-0.1-0.2-0.1 c-0.3-0.2-0.7-0.2-0.9,0c-0.1,0.1-0.2,0.2-0.2,0.4c0,0.4-0.3,0.6-0.7,0.6c-0.1,0-0.1,0-0.2,0c-0.3-0.1-0.7,0-0.8,0.4 c-0.1,0.1-0.1,0.3,0,0.4c0.1,0.2,0,0.4-0.1,0.6c-0.1,0.2-0.3,0.3-0.5,0.3h0c-0.4,0-0.6,0.3-0.6,0.6c0,0.1,0,0.3,0.1,0.4 c0.2,0.3,0.2,0.7-0.1,0.9c-0.1,0-0.1,0.1-0.2,0.1c-0.3,0.1-0.5,0.5-0.4,0.8c0.1,0.1,0.1,0.3,0.3,0.3c0.2,0.1,0.3,0.3,0.3,0.5 c0,0.2-0.1,0.4-0.2,0.6c-0.3,0.2-0.3,0.6-0.1,0.9c0.1,0.1,0.2,0.2,0.4,0.2c0.4,0.1,0.6,0.4,0.5,0.8c0,0.1,0,0.1-0.1,0.2 c-0.2,0.3,0,0.7,0.3,0.9c0.1,0.1,0.3,0.1,0.4,0.1c0.2,0,0.4,0,0.6,0.2c0.2,0.1,0.2,0.4,0.2,0.6c0,0.4,0.2,0.7,0.6,0.7 c0.1,0,0.3,0,0.4-0.1c0.2-0.1,0.4-0.1,0.6-0.1c0.2,0.1,0.3,0.2,0.4,0.5c0.1,0.3,0.5,0.5,0.8,0.4c0.1,0,0.3-0.1,0.3-0.2 c0.2-0.3,0.6-0.4,0.9-0.1c0.1,0,0.1,0.1,0.1,0.1c0.1,0.2,0.3,0.3,0.5,0.3c0,0,0.1,0,0.1,0c0.2,0,0.4-0.2,0.5-0.5 c0.1-0.2,0.2-0.4,0.4-0.5c0.2-0.1,0.4-0.1,0.6,0.1c0.2,0.1,0.5,0.1,0.7,0c0.2-0.1,0.3-0.4,0.3-0.6c0-0.2,0.1-0.4,0.2-0.6 c0.2-0.1,0.4-0.2,0.6-0.2c0.3,0.1,0.7-0.2,0.8-0.5c0-0.1,0-0.3-0.1-0.4c-0.2-0.3,0-0.7,0.3-0.9c0.1,0,0.1-0.1,0.2-0.1 c0.4-0.1,0.6-0.4,0.5-0.7c0-0.1-0.1-0.3-0.2-0.4c-0.2-0.1-0.2-0.3-0.2-0.6C30.2,8.9,30.3,8.8,30.5,8.7L30.5,8.7z M29,9.9 c-0.2,0.2-0.4,0.4-0.6,0.7c-0.1,0.3-0.2,0.6-0.2,0.9c-0.6,0.2-1.1,0.6-1.3,1.2c-0.3,0-0.6,0-0.9,0.1c-0.3,0.1-0.5,0.3-0.7,0.5 c-0.6-0.3-1.2-0.3-1.8,0c-0.2-0.2-0.5-0.4-0.7-0.5c-0.3-0.1-0.6-0.2-0.9-0.1c-0.2-0.6-0.7-1-1.3-1.2c0-0.3-0.1-0.6-0.2-0.9 c-0.1-0.3-0.3-0.5-0.6-0.7C19.9,9.6,20,9.3,19.9,9c0-0.3-0.1-0.6-0.3-0.9C19.9,8,20,7.7,20.1,7.4c0.1-0.3,0.1-0.6,0-0.9 c0.3-0.1,0.5-0.3,0.7-0.6c0.2-0.2,0.3-0.5,0.4-0.8c0.6-0.1,1.2-0.4,1.5-0.9c0.3,0.1,0.6,0.1,0.9,0c0.4-0.5,1.1-0.5,1.6-0.1 c0,0,0.1,0.1,0.1,0.1c0.3,0.1,0.6,0,0.9,0c0.2,0.3,0.4,0.5,0.6,0.6C27,5,27.3,5.1,27.6,5.1c0.1,0.3,0.2,0.6,0.4,0.8 c0.2,0.2,0.4,0.4,0.7,0.6c-0.1,0.3,0,0.6,0,0.9c0.1,0.3,0.2,0.6,0.4,0.8C29,8.4,28.9,8.7,28.9,9C28.8,9.3,28.9,9.6,29,9.9L29,9.9z M32,4.6c-0.2-0.3-0.5-0.5-0.9-0.3s-0.5,0.5-0.3,0.9c0,0,0,0,0,0c1.5,2.8,0.9,6.3-1.3,8.5c-0.3,0.3-0.5,0.5-0.8,0.7c0,0,0,0,0,0 c-3.2,2.4-7.8,1.7-10.2-1.6c-1.9-2.6-1.9-6,0-8.6v0c0,0,0,0,0,0c2.1-2.8,6-3.7,9.1-2.1c0.3,0.2,0.7,0,0.9-0.3c0,0,0,0,0,0 c0.2-0.3,0-0.7-0.3-0.9c-3.3-1.7-7.3-1-9.9,1.6c-0.3,0.3-0.6,0.6-0.8,1l-6.3,7.7c-0.2,0.3-0.2,0.7,0.1,0.9c0,0,0,0,0,0 c0.3,0.2,0.7,0.2,0.9-0.1c0,0,0,0,0,0l3.7-4.5c0,0.4-0.1,0.7-0.1,1.1c0,4.7,3.8,8.6,8.6,8.6c0,0,0,0,0,0c0.4,0,0.7,0,1.1-0.1 L11.8,28.3c0.7-3.2-1.4-6.4-4.6-7.1C6.8,21.1,6.4,21,6,21c-0.4,0-0.8,0-1.3,0.1l4.1-5c0.2-0.3,0.2-0.7-0.1-0.9 C8.5,15,8.1,15,7.8,15.3l0,0l-6.2,7.6c-2.3,2.4-2.2,6.2,0.2,8.5c2.3,2.2,5.9,2.2,8.3,0l19.4-15.9C32.9,13,34,8.4,32,4.6L32,4.6z M6,31.7c-2.6,0-4.7-2.1-4.7-4.7c0-2.6,2.1-4.7,4.7-4.7c2.6,0,4.7,2.1,4.7,4.7c0,0,0,0,0,0C10.7,29.6,8.6,31.7,6,31.7L6,31.7z M30.5,2.6L30.5,2.6c-0.3-0.3-0.7-0.3-0.9-0.1c0,0,0,0,0,0c-0.3,0.3-0.3,0.7,0,0.9c0,0,0,0,0,0l0,0c0.1,0.1,0.3,0.2,0.5,0.2 c0.2,0,0.3-0.1,0.5-0.2C30.8,3.2,30.8,2.8,30.5,2.6C30.5,2.6,30.5,2.6,30.5,2.6z M9.5,26.4c0.1-0.2,0.2-0.4,0.1-0.6 c-0.1-0.2-0.2-0.4-0.4-0.4c-0.4-0.1-0.7-0.5-0.7-0.9c0-0.2-0.1-0.4-0.3-0.6c-0.2-0.1-0.4-0.2-0.6-0.1c-0.4,0.2-0.9,0-1.1-0.4 c-0.2-0.3-0.6-0.4-0.9-0.2c-0.1,0-0.1,0.1-0.2,0.2c-0.2,0.4-0.7,0.5-1.1,0.4c-0.2-0.1-0.4,0-0.6,0.1c-0.2,0.1-0.3,0.3-0.3,0.6 c0,0.4-0.3,0.8-0.7,0.9c-0.2,0.1-0.4,0.2-0.4,0.4c-0.1,0.2,0,0.4,0.1,0.6c0.3,0.3,0.3,0.8,0,1.2c-0.1,0.2-0.2,0.4-0.1,0.6 c0.1,0.2,0.2,0.4,0.4,0.4c0.4,0.1,0.7,0.5,0.7,0.9c0,0.2,0.1,0.4,0.3,0.6c0.2,0.1,0.4,0.2,0.6,0.1c0.4-0.2,0.9,0,1.1,0.4 c0.2,0.3,0.6,0.4,0.9,0.2c0.1-0.1,0.2-0.1,0.2-0.2c0.2-0.4,0.7-0.5,1.1-0.4c0.2,0.1,0.4,0,0.6-0.1c0.2-0.1,0.3-0.3,0.3-0.6 c0-0.4,0.3-0.8,0.7-0.9c0.2-0.1,0.4-0.2,0.4-0.4c0.1-0.2,0-0.4-0.1-0.6C9.5,27.4,10.8,26.9,9.5,26.4L9.5,26.4z M8.2,27.7 c-0.4,0.3-0.7,0.7-0.8,1.1h0c-0.8,0.6-1.9,0.6-2.6,0h0c-0.8-0.6-1.1-1.6-0.8-2.5c0.4-0.3,0.7-0.7,0.8-1.1h0c0.8-0.6,1.9-0.6,2.6,0h0 C8.1,25.7,8.5,26.8,8.2,27.7L8.2,27.7z M6.4,26.5c-0.2-0.3-0.7-0.3-0.9,0c0,0,0,0,0,0c-0.1,0.1-0.2,0.3-0.2,0.5 c0,0.2,0.1,0.3,0.2,0.5c0.2,0.3,0.7,0.3,0.9,0c0,0,0,0,0,0c0.1-0.1,0.2-0.3,0.2-0.5C6.6,26.8,6.6,26.7,6.4,26.5L6.4,26.5z"></path> </svg> 