<?xml version="1.0" encoding="UTF-8"?> <svg xmlns="http://www.w3.org/2000/svg" width="32" height="32" viewBox="0 0 32 32" fill="none"><path d="M8.5 2C8.77614 2 9 2.22386 9 2.5V4.5C9 4.77614 8.77614 5 8.5 5C8.22386 5 8 4.77614 8 4.5V4H6.5C5.67157 4 5 4.67157 5 5.5V13.5C5 13.7761 4.77614 14 4.5 14C4.22386 14 4 13.7761 4 13.5V5.5C4 4.11929 5.11929 3 6.5 3H8V2.5C8 2.22386 8.22386 2 8.5 2Z" fill="#e83a3a"></path><path d="M11.5 2C11.7761 2 12 2.22386 12 2.5V4.5C12 4.77614 11.7761 5 11.5 5C11.2239 5 11 4.77614 11 4.5V2.5C11 2.22386 11.2239 2 11.5 2Z" fill="#e83a3a"></path><path d="M14.5 2C14.7761 2 15 2.22386 15 2.5V4.5C15 4.77614 14.7761 5 14.5 5C14.2239 5 14 4.77614 14 4.5V2.5C14 2.22386 14.2239 2 14.5 2Z" fill="#e83a3a"></path><path d="M17.5 2C17.7761 2 18 2.22386 18 2.5V4.5C18 4.77614 17.7761 5 17.5 5C17.2239 5 17 4.77614 17 4.5V2.5C17 2.22386 17.2239 2 17.5 2Z" fill="#e83a3a"></path><path d="M20.5 2C20.7761 2 21 2.22386 21 2.5V4.5C21 4.77614 20.7761 5 20.5 5C20.2239 5 20 4.77614 20 4.5V2.5C20 2.22386 20.2239 2 20.5 2Z" fill="#e83a3a"></path><path d="M23.5 2C23.7761 2 24 2.22386 24 2.5V4.5C24 4.77614 23.7761 5 23.5 5C23.2239 5 23 4.77614 23 4.5V2.5C23 2.22386 23.2239 2 23.5 2Z" fill="#e83a3a"></path><path d="M26.5 2C26.7761 2 27 2.22386 27 2.5V3H28.5C29.8807 3 31 4.11929 31 5.5V21.5C31 22.8807 29.8807 24 28.5 24H17.5C17.2239 24 17 23.7761 17 23.5C17 23.2239 17.2239 23 17.5 23H28.5C29.3284 23 30 22.3284 30 21.5V5.5C30 4.67157 29.3284 4 28.5 4H27V4.5C27 4.77614 26.7761 5 26.5 5C26.2239 5 26 4.77614 26 4.5V2.5C26 2.22386 26.2239 2 26.5 2Z" fill="#e83a3a"></path><path d="M8 9.5C8 9.22386 8.22386 9 8.5 9H12.5C12.7761 9 13 9.22386 13 9.5C13 9.77614 12.7761 10 12.5 10H8.5C8.22386 10 8 9.77614 8 9.5Z" fill="#e83a3a"></path><path d="M15 9.5C15 9.22386 15.2239 9 15.5 9H19.5C19.7761 9 20 9.22386 20 9.5C20 9.77614 19.7761 10 19.5 10H15.5C15.2239 10 15 9.77614 15 9.5Z" fill="#e83a3a"></path><path d="M22 9.5C22 9.22386 22.2239 9 22.5 9H26.5C26.7761 9 27 9.22386 27 9.5C27 9.77614 26.7761 10 26.5 10H22.5C22.2239 10 22 9.77614 22 9.5Z" fill="#e83a3a"></path><path d="M8 13.5C8 13.2239 8.22386 13 8.5 13H12.5C12.7761 13 13 13.2239 13 13.5C13 13.7761 12.7761 14 12.5 14H8.5C8.22386 14 8 13.7761 8 13.5Z" fill="#e83a3a"></path><path d="M15 13.5C15 13.2239 15.2239 13 15.5 13H19.5C19.7761 13 20 13.2239 20 13.5C20 13.7761 19.7761 14 19.5 14H15.5C15.2239 14 15 13.7761 15 13.5Z" fill="#e83a3a"></path><path d="M22 13.5C22 13.2239 22.2239 13 22.5 13H26.5C26.7761 13 27 13.2239 27 13.5C27 13.7761 26.7761 14 26.5 14H22.5C22.2239 14 22 13.7761 22 13.5Z" fill="#e83a3a"></path><path d="M15 17.5C15 17.2239 15.2239 17 15.5 17H19.5C19.7761 17 20 17.2239 20 17.5C20 17.7761 19.7761 18 19.5 18H15.5C15.2239 18 15 17.7761 15 17.5Z" fill="#e83a3a"></path><path d="M22 17.5C22 17.2239 22.2239 17 22.5 17H26.5C26.7761 17 27 17.2239 27 17.5C27 17.7761 26.7761 18 26.5 18H22.5C22.2239 18 22 17.7761 22 17.5Z" fill="#e83a3a"></path><path d="M7.5 19C7.77614 19 8 19.2239 8 19.5V22H9.5C9.77614 22 10 22.2239 10 22.5C10 22.7761 9.77614 23 9.5 23H7.5C7.22386 23 7 22.7761 7 22.5V19.5C7 19.2239 7.22386 19 7.5 19Z" fill="#e83a3a"></path><path fill-rule="evenodd" clip-rule="evenodd" d="M1 22.5C1 18.9101 3.91015 16 7.5 16C11.0899 16 14 18.9101 14 22.5C14 26.0899 11.0899 29 7.5 29C3.91015 29 1 26.0899 1 22.5ZM7.5 28C4.46243 28 2 25.5376 2 22.5C2 19.4624 4.46243 17 7.5 17C10.5376 17 13 19.4624 13 22.5C13 25.5376 10.5376 28 7.5 28Z" fill="#e83a3a"></path></svg> 