<?xml version="1.0" encoding="UTF-8"?> <!-- Generator: Adobe Illustrator 21.0.0, SVG Export Plug-In . SVG Version: 6.00 Build 0) --> <svg xmlns="http://www.w3.org/2000/svg" xmlns:xlink="http://www.w3.org/1999/xlink" version="1.1" id="Capa_1" x="0px" y="0px" viewBox="0 0 464 464" style="enable-background:new 0 0 464 464;" xml:space="preserve"> <g> <g> <path style="fill:#E83A3A;" d="M415.6,61.8c0-0.1,0-0.2,0-0.3c-0.4-1.2-1.1-2.3-2.1-3.2c-0.5-0.5-1-0.8-1.5-1.2 c-0.3-0.2-0.6-0.3-1-0.5c-0.2-0.1-0.5-0.2-0.7-0.4l-176-56c-1.6-0.5-3.3-0.5-4.8,0l-176,56c-3.3,1-5.6,4.1-5.6,7.6v192 c0,3.5,2.3,6.6,5.6,7.6l176,56c1.6,0.5,3.3,0.5,4.8,0l32-10.2c4.2-1.3,6.5-5.8,5.2-10.1s-5.8-6.5-10.1-5.2L240,301V272 c0-4.4-3.6-8-8-8s-8,3.6-8,8V301L64,250.1V69.8l53.3-17l149.6,47.6L232,111.6L98.4,69.1c-4.2-1.3-8.7,1-10,5.2 c-1.3,4.2,1,8.7,5.2,10L224,125.8V240c0,4.4,3.6,8,8,8s8-3.6,8-8V125.8l45.3-14.4v53.1c0,4.4,3.6,8,8,8c0.8,0,1.6-0.1,2.4-0.4 l18.7-6c4.2-1.3,6.5-5.8,5.2-10s-5.8-6.5-10-5.2l-8.2,2.6v-47.2l41.3-13.2v47.2l-9.1,2.9c-4.2,1.3-6.5,5.8-5.2,10 c1.1,3.3,4.1,5.6,7.6,5.6c0.8,0,1.6-0.1,2.4-0.4l14.7-4.7c3.3-1,5.6-4.1,5.6-7.6V88.1L400,74.9v175.2l-10.4,3.3 c-4.3,1.2-6.7,5.6-5.5,9.9c1.2,4.3,5.6,6.7,9.9,5.5c0.1,0,0.3-0.1,0.4-0.1l16-5.1c3.3-1,5.6-4.1,5.6-7.6V64 C416,63.3,415.9,62.5,415.6,61.8z M293.3,92.1L143.7,44.5l30.9-9.8l149.6,47.6L293.3,92.1z M350.6,73.8L201.1,26.2l30.9-9.8 L381.6,64L350.6,73.8z"></path> </g> </g> <g> <g> <path style="fill:#E83A3A;" d="M88,200c-4.4,0-8,3.6-8,8v24c0,4.4,3.6,8,8,8s8-3.6,8-8v-24C96,203.6,92.4,200,88,200z"></path> </g> </g> <g> <g> <path style="fill:#E83A3A;" d="M120,208c-4.4,0-8,3.6-8,8v24c0,4.4,3.6,8,8,8s8-3.6,8-8v-24C128,211.6,124.4,208,120,208z"></path> </g> </g> <g> <g> <path style="fill:#E83A3A;" d="M360,224c-4.4,0-8,3.6-8,8v112c0,39.7-32.3,72-72,72h-96c-4.4,0-8,3.6-8,8v16.6l-58-40.6l58-40.6 V376c0,4.4,3.6,8,8,8h72c26.5,0,48-21.5,48-48v-32c0-4.4-3.6-8-8-8s-8,3.6-8,8v32c0,17.7-14.3,32-32,32h-64v-24c0-4.4-3.6-8-8-8 c-1.6,0-3.2,0.5-4.6,1.4l-80,56c-3.6,2.5-4.5,7.5-2,11.1c0.5,0.8,1.2,1.4,2,2l80,56c3.6,2.5,8.6,1.6,11.1-2 c0.9-1.3,1.4-2.9,1.4-4.6v-24h88c48.6-0.1,87.9-39.4,88-88V232C368,227.6,364.4,224,360,224z"></path> </g> </g> <g> <g> <path style="fill:#E83A3A;" d="M296,248c-4.4,0-8,3.6-8,8v16c0,4.4,3.6,8,8,8s8-3.6,8-8v-16C304,251.6,300.4,248,296,248z"></path> </g> </g> <g> <g> <path style="fill:#E83A3A;" d="M360,176c-4.4,0-8,3.6-8,8v16c0,4.4,3.6,8,8,8s8-3.6,8-8v-16C368,179.6,364.4,176,360,176z"></path> </g> </g> <g> <g> <path style="fill:#E83A3A;" d="M328,208c-4.4,0-8,3.6-8,8v64c0,4.4,3.6,8,8,8s8-3.6,8-8v-64C336,211.6,332.4,208,328,208z"></path> </g> </g> </svg> 