<?xml version="1.0" encoding="UTF-8"?> <!-- Generator: Adobe Illustrator 21.0.0, SVG Export Plug-In . SVG Version: 6.00 Build 0) --> <svg xmlns="http://www.w3.org/2000/svg" xmlns:xlink="http://www.w3.org/1999/xlink" version="1.1" id="Layer_1" x="0px" y="0px" viewBox="0 0 512 512" style="enable-background:new 0 0 512 512;" xml:space="preserve"> <g> <g> <path style="fill:#E83A3A;" d="M476.2,231.4l-13.3-53c3.6-0.8,6.3-4,6.3-7.8v-8.6c0-18.6-15.1-33.7-33.7-33.7h-60.4v-17.6 c0-9.1-7.4-16.6-16.6-16.6H50.8c-9.1,0-16.6,7.4-16.6,16.6V256c0,4.4,3.6,8,8,8c4.4,0,8-3.6,8-8V110.6c0-0.3,0.2-0.5,0.5-0.5 h307.8c0.3,0,0.5,0.2,0.5,0.5V256c0,4.4,3.6,8,8,8c4.4,0,8-3.6,8-8v-9.1h94.6c0,0,0,0,0,0c0,0,0,0,0,0c11.6,0,21.5,7.6,24.9,18.2 h-24.9c-4.4,0-8,3.6-8,8v17.1c0,13.9,11.3,25.1,25.1,25.1h9.1v35.3h-21c-6.9-19.9-25.8-34.2-48-34.2s-41.1,14.3-48,34.2h-3.9 v-60.4c0-4.4-3.6-8-8-8c-4.4,0-8,3.6-8,8v60.4H192.8c-6.9-19.9-25.8-34.2-48-34.2s-41.1,14.3-48,34.2H50.8c-0.3,0-0.5-0.2-0.5-0.5 v-17.6H85c4.4,0,8-3.6,8-8s-3.6-8-8-8H8c-4.4,0-8,3.6-8,8s3.6,8,8,8h26.2v17.6c0,9.1,7.4,16.6,16.6,16.6h43.3c0,0.2,0,0.4,0,0.5 c0,28,22.8,50.8,50.8,50.8s50.8-22.8,50.8-50.8c0-0.2,0-0.4,0-0.5h180.7c0,0.2,0,0.4,0,0.5c0,28,22.8,50.8,50.8,50.8 s50.8-22.8,50.8-50.8c0-0.2,0-0.4,0-0.5H504c4.4,0,8-3.6,8-8v-85.5C512,252,496.4,234.4,476.2,231.4z M375.2,144.3h60.4 c9.7,0,17.6,7.9,17.6,17.6v0.5h-78V144.3z M375.2,230.9v-52.4h71.2l13.1,52.4L375.2,230.9L375.2,230.9z M144.8,401.9 c-19.2,0-34.7-15.6-34.7-34.7s15.6-34.7,34.7-34.7s34.7,15.6,34.7,34.7S164,401.9,144.8,401.9z M427,401.9 c-19.2,0-34.7-15.6-34.7-34.7s15.6-34.7,34.7-34.7c19.2,0,34.7,15.6,34.7,34.7S446.2,401.9,427,401.9z M496,299.3h-9.1 c-5,0-9.1-4.1-9.1-9.1v-9.1H496L496,299.3L496,299.3z"></path> </g> </g> <g> <g> <path style="fill:#E83A3A;" d="M144.8,350.6c-9.1,0-16.6,7.4-16.6,16.6s7.4,16.6,16.6,16.6c9.1,0,16.6-7.4,16.6-16.6 C161.4,358,154,350.6,144.8,350.6z"></path> </g> </g> <g> <g> <path style="fill:#E83A3A;" d="M427,350.6c-9.1,0-16.6,7.4-16.6,16.6s7.4,16.6,16.6,16.6s16.6-7.4,16.6-16.6 S436.2,350.6,427,350.6z"></path> </g> </g> <g> <g> <path style="fill:#E83A3A;" d="M333,316.4H213.2c-4.4,0-8,3.6-8,8s3.6,8,8,8H333c4.4,0,8-3.6,8-8S337.4,316.4,333,316.4z"></path> </g> </g> <g> <g> <path style="fill:#E83A3A;" d="M127.7,282.2H25.1c-4.4,0-8,3.6-8,8s3.6,8,8,8h102.6c4.4,0,8-3.6,8-8S132.2,282.2,127.7,282.2z"></path> </g> </g> </svg> 