<?xml version="1.0" encoding="UTF-8"?> <svg xmlns="http://www.w3.org/2000/svg" width="32" height="32" viewBox="0 0 32 32" fill="none"><path d="M9 4.5C9 3.11929 10.1193 2 11.5 2H20.51C21.8852 2 23 3.11481 23 4.49V4.5C23 4.77614 22.7761 5 22.5 5C22.2239 5 22 4.77614 22 4.5V4.49C22 3.6671 21.3329 3 20.51 3H11.5C10.6716 3 10 3.67157 10 4.5V22.5C10 22.7761 9.77614 23 9.5 23C9.22386 23 9 22.7761 9 22.5V4.5Z" fill="#e83a3a"></path><path d="M11 6.5C11 6.22386 11.2239 6 11.5 6H22.5C22.7761 6 23 6.22386 23 6.5V26.5C23 27.8807 21.8807 29 20.5 29H11.5C10.1193 29 9 27.8807 9 26.5V24.5C9 24.2239 9.22386 24 9.5 24H20.5C20.7761 24 21 24.2239 21 24.5C21 24.7761 20.7761 25 20.5 25H10V26.5C10 27.3284 10.6716 28 11.5 28H20.5C21.3284 28 22 27.3284 22 26.5V7H11.5C11.2239 7 11 6.77614 11 6.5Z" fill="#e83a3a"></path><path d="M15 26.5C15 25.9477 15.4477 25.5 16 25.5C16.5523 25.5 17 25.9477 17 26.5C17 27.0523 16.5523 27.5 16 27.5C15.4477 27.5 15 27.0523 15 26.5Z" fill="#e83a3a"></path><path d="M13.5 5C13.7761 5 14 4.77614 14 4.5C14 4.22386 13.7761 4 13.5 4C13.2239 4 13 4.22386 13 4.5C13 4.77614 13.2239 5 13.5 5Z" fill="#e83a3a"></path><path d="M15 4.5C15 4.22386 15.2239 4 15.5 4H18.5C18.7761 4 19 4.22386 19 4.5C19 4.77614 18.7761 5 18.5 5H15.5C15.2239 5 15 4.77614 15 4.5Z" fill="#e83a3a"></path><path d="M16.814 9.13967C16.6278 8.95344 16.3259 8.95344 16.1397 9.13967C15.9534 9.32589 15.9534 9.62782 16.1397 9.81405L20.1859 13.8603C20.3722 14.0466 20.6741 14.0466 20.8603 13.8603C21.0466 13.6741 21.0466 13.3722 20.8603 13.186L16.814 9.13967Z" fill="#e83a3a"></path><path d="M19.5116 9.13967C19.3253 8.95344 19.0234 8.95344 18.8372 9.13967C18.651 9.32589 18.651 9.62782 18.8372 9.81405L20.186 11.1628C20.3722 11.349 20.6741 11.349 20.8603 11.1628C21.0466 10.9766 21.0466 10.6747 20.8603 10.4884L19.5116 9.13967Z" fill="#e83a3a"></path></svg> 