<?xml version="1.0" encoding="UTF-8"?> <!-- Generator: Adobe Illustrator 21.0.0, SVG Export Plug-In . SVG Version: 6.00 Build 0) --> <svg xmlns="http://www.w3.org/2000/svg" xmlns:xlink="http://www.w3.org/1999/xlink" version="1.1" id="Capa_1" x="0px" y="0px" viewBox="0 0 480 480" style="enable-background:new 0 0 480 480;" xml:space="preserve"> <g> <g> <path style="fill:#E83A3A;" d="M440,96H40c-22.4,0-40,17.6-40,40v208c0,22.4,17.6,40,40,40h400c22.4,0,40-17.6,40-40V136 C480,113.6,462.4,96,440,96z M40,112h400c10.4,0,19.2,6.4,22.4,16H17.6C20.8,118.4,29.6,112,40,112z M464,344 c0,13.6-10.4,24-24,24H40c-13.6,0-24-10.4-24-24V192h448V344z M464,176H16v-32h448V176z"></path> </g> </g> <g> <g> <path style="fill:#E83A3A;" d="M120,224H56c-4.8,0-8,3.2-8,8s3.2,8,8,8h64c4.8,0,8-3.2,8-8S124.8,224,120,224z"></path> </g> </g> <g> <g> <path style="fill:#E83A3A;" d="M280,328H56c-4.8,0-8,3.2-8,8s3.2,8,8,8h224c4.8,0,8-3.2,8-8S284.8,328,280,328z"></path> </g> </g> <g> <g> <path style="fill:#E83A3A;" d="M424,288h-48c-13.6,0-24,10.4-24,24v16c0,13.6,10.4,24,24,24h48c13.6,0,24-10.4,24-24v-16 C448,298.4,437.6,288,424,288z M432,328c0,4.8-3.2,8-8,8h-48c-4.8,0-8-3.2-8-8v-16c0-4.8,3.2-8,8-8h48c4.8,0,8,3.2,8,8V328z"></path> </g> </g> </svg> 