<?xml version="1.0" encoding="UTF-8"?> <svg xmlns="http://www.w3.org/2000/svg" width="32" height="32" viewBox="0 0 32 32" fill="none"><path d="M16 1C13.3999 1 10.8982 1.80981 9.04031 3.4838C7.174 5.16535 6 7.681 6 11C6 13.2535 7.17294 16.1338 8.62228 18.9196C9.93583 21.4444 11.52 23.9701 12.7921 25.9982L12.7931 25.9998C12.9355 26.2268 13.0739 26.4475 13.2077 26.6613C13.3541 26.8954 13.6626 26.9665 13.8967 26.8201C14.1308 26.6737 14.2019 26.3652 14.0555 26.131C13.9211 25.9161 13.7823 25.6948 13.6399 25.4678C12.3654 23.4357 10.8031 20.9447 9.50941 18.4581C8.05959 15.6713 7 12.9852 7 11C7 7.93303 8.076 5.69868 9.70969 4.22673C11.3518 2.74721 13.6001 2 16 2C18.3999 2 20.6482 2.74721 22.2903 4.22673C23.924 5.69868 25 7.93303 25 11C25 12.4926 24.4394 14.4022 23.556 16.4661C22.6777 18.5178 21.5026 20.6718 20.3214 22.6372C19.1412 24.601 17.9601 26.3678 17.0737 27.6441C16.6307 28.2819 16.2617 28.7967 16.0038 29.1515C15.8748 29.329 15.7736 29.4664 15.7049 29.5592C15.6705 29.6056 15.6443 29.6409 15.6267 29.6644L15.6069 29.6908L15.6009 29.6988C15.4348 29.9194 15.4786 30.2333 15.6992 30.3994C15.9198 30.5655 16.2333 30.5214 16.3994 30.3008L16 30C16.3994 30.3008 16.3993 30.3009 16.3994 30.3008L16.4014 30.2981L16.4069 30.2909L16.4278 30.2629C16.4462 30.2383 16.4733 30.2019 16.5085 30.1544C16.5789 30.0593 16.6818 29.9195 16.8127 29.7395C17.0743 29.3796 17.4474 28.859 17.895 28.2145C18.7899 26.9261 19.9838 25.1402 21.1786 23.1523C22.3724 21.1659 23.5723 18.969 24.4753 16.8596C25.3731 14.7623 26 12.7004 26 11C26 7.681 24.826 5.16535 22.9597 3.4838C21.1018 1.80981 18.6001 1 16 1Z" fill="#e83a3a"></path><path d="M12.5 11C12.5 9.067 14.067 7.5 16 7.5C16.2761 7.5 16.5 7.27614 16.5 7C16.5 6.72386 16.2761 6.5 16 6.5C13.5147 6.5 11.5 8.51472 11.5 11C11.5 13.4853 13.5147 15.5 16 15.5C18.4853 15.5 20.5 13.4853 20.5 11C20.5 9.85909 20.0748 8.81628 19.3749 8.02331C19.1921 7.81627 18.8762 7.79657 18.6691 7.97931C18.4621 8.16204 18.4424 8.47801 18.6251 8.68504C19.17 9.30234 19.5 10.112 19.5 11C19.5 12.933 17.933 14.5 16 14.5C14.067 14.5 12.5 12.933 12.5 11Z" fill="#e83a3a"></path></svg> 