<?xml version="1.0" encoding="UTF-8"?> <svg xmlns="http://www.w3.org/2000/svg" width="32" height="32" viewBox="0 0 32 32" fill="none"><path d="M2.5 16C2.5 8.54416 8.54416 2.5 16 2.5C23.4558 2.5 29.5 8.54416 29.5 16C29.5 17.9508 29.0073 19.2445 28.2 19.85C27.425 20.4313 26.156 20.519 24.2236 19.5528C23.9766 19.4293 23.6763 19.5294 23.5528 19.7764C23.4293 20.0234 23.5294 20.3237 23.7764 20.4472C25.844 21.481 27.575 21.5687 28.8 20.65C29.9927 19.7555 30.5 18.0492 30.5 16C30.5 7.99187 24.0081 1.5 16 1.5C7.99187 1.5 1.5 7.99187 1.5 16C1.5 24.0081 7.99187 30.5 16 30.5C20.3308 30.5 24.2187 28.6007 26.8749 25.5913C27.0576 25.3842 27.0379 25.0682 26.8309 24.8855C26.6238 24.7028 26.3079 24.7225 26.1251 24.9295C23.6507 27.733 20.032 29.5 16 29.5C8.54416 29.5 2.5 23.4558 2.5 16Z" fill="#e83a3a"></path><path d="M9.5 16C9.5 12.4101 12.4101 9.5 16 9.5C19.5899 9.5 22.5 12.4101 22.5 16C22.5 16.2761 22.7239 16.5 23 16.5C23.2761 16.5 23.5 16.2761 23.5 16C23.5 11.8579 20.1421 8.5 16 8.5C11.8579 8.5 8.5 11.8579 8.5 16C8.5 20.1421 11.8579 23.5 16 23.5C18.7767 23.5 21.2003 21.9908 22.4963 19.7504C22.6346 19.5113 22.5529 19.2055 22.3139 19.0672C22.0749 18.9289 21.769 19.0106 21.6307 19.2496C20.5061 21.1938 18.4053 22.5 16 22.5C12.4101 22.5 9.5 19.5899 9.5 16Z" fill="#e83a3a"></path></svg> 