<?xml version="1.0" encoding="UTF-8"?> <!-- Generator: Adobe Illustrator 21.0.0, SVG Export Plug-In . SVG Version: 6.00 Build 0) --> <svg xmlns="http://www.w3.org/2000/svg" xmlns:xlink="http://www.w3.org/1999/xlink" version="1.1" id="shape" x="0px" y="0px" viewBox="0 0 46 32" style="enable-background:new 0 0 46 32;" xml:space="preserve"> <path id="bike-frame" style="fill:#E83A3A;" d="M4.2,27.8L4.2,27.8c-0.4-0.4-0.9-0.4-1.3-0.1c0,0,0,0,0,0c-0.4,0.4-0.4,0.9,0,1.3 l0.1,0c0.2,0.2,0.4,0.3,0.6,0.3c0.2,0,0.5-0.1,0.6-0.3C4.6,28.7,4.6,28.1,4.2,27.8z M36.1,11.8c-1.2,0-2.3,0.2-3.4,0.6l-2.5-8.5h5.4 c0.4,0,0.7,0.2,0.9,0.6c0.1,0.3,0.1,0.6-0.1,0.9c-0.2,0.3-0.5,0.4-0.8,0.4h-0.8c-0.5,0-0.9,0.4-0.9,0.9c0,0.5,0.4,0.9,0.9,0.9h0.8 c0.9,0,1.8-0.5,2.3-1.3c0.5-0.8,0.6-1.8,0.2-2.7c-0.4-1-1.4-1.6-2.5-1.7h-6.6c-0.3,0-0.6,0.1-0.7,0.4C28,2.6,28,2.9,28.1,3.2 l1.1,3.7h-1.4c-0.5,0-0.9,0.4-0.9,0.9c0,0.5,0.4,0.9,0.9,0.9h1.9l1.3,4.5c-2.1,1.3-3.7,3.4-4.4,5.8c-0.6-0.5-1.5-0.8-2.3-0.8 c-0.2,0-0.5,0-0.7,0.1l-4.4-9.5h1.9c0.5,0,0.9-0.4,0.9-0.9c0-0.5-0.4-0.9-0.9-0.9h-2.8l-0.5-1h2.2C20.6,5.9,21,5.5,21,5c0,0,0,0,0,0 c0-2.7-2.1-4.9-4.9-5h-3.4c-0.9,0-1.8,0.5-2.3,1.2C9.9,2,9.8,3,10.1,3.9c0.4,1.2,1.5,2,2.7,2h3.1l0.9,1.9L14,12.7 c-3.8-1.8-8.2-0.9-11.1,2c-2.7,2.8-3.6,6.9-2.3,10.5c0.2,0.5,0.7,0.7,1.1,0.6c0,0,0,0,0,0c0.5-0.2,0.7-0.7,0.5-1.2 c-1-3-0.3-6.3,1.9-8.6c2.3-2.4,5.9-3.1,9-1.7l-0.9,1.6c-0.7-0.3-1.5-0.5-2.3-0.5c-3.6-0.1-6.5,2.7-6.6,6.3s2.7,6.5,6.3,6.6 c3.3,0.1,6.1-2.3,6.5-5.5h1.8c-0.2,1.9-1,3.6-2.3,4.9c-2.2,2.3-5.6,3-8.5,1.9c-0.5-0.2-1,0.1-1.1,0.5c0,0,0,0,0,0 c-0.2,0.5,0.1,1,0.5,1.2C7.5,31.8,8.7,32,9.9,32c2.6,0,5.2-1.1,7-3c1.6-1.7,2.7-3.9,2.9-6.2h1.1c0.3,1.3,1.3,2.4,2.6,2.7v1h-0.8 c-0.5,0-0.9,0.4-0.9,0.9c0,0.5,0.4,0.9,0.9,0.9h1.7c0.5,0,0.9-0.4,0.9-0.9c0,0,0,0,0,0v-1.9c0.5-0.1,1-0.4,1.4-0.7 c1.7,5.2,7.3,8,12.5,6.3c5.2-1.7,8-7.3,6.3-12.5C44.1,14.5,40.4,11.8,36.1,11.8z M12.8,4c-0.5,0-0.9-0.3-1-0.7 c-0.1-0.3-0.1-0.7,0.1-1c0.2-0.3,0.5-0.5,0.9-0.5h3.4c1.4,0,2.5,0.9,2.9,2.2H12.8L12.8,4z M9.9,26.5c-2.5-0.1-4.5-2.3-4.4-4.8 c0.1-2.4,2-4.3,4.4-4.4c0.5,0,1,0.1,1.4,0.2l-2.2,3.9c0,0,0,0,0,0c-0.2,0.4-0.1,1,0.4,1.3c0.1,0.1,0.3,0.1,0.4,0.1h4.4 C13.9,24.9,12,26.5,9.9,26.5L9.9,26.5z M11.4,21l1.4-2.5c0.7,0.7,1.2,1.5,1.4,2.5H11.4z M16.1,21c-0.2-1.6-1.1-3.1-2.3-4.1l0.9-1.6 c0.3,0.3,0.6,0.5,0.9,0.8c1.3,1.3,2.1,3.1,2.3,4.9H16.1L16.1,21z M20.8,21h-1.1c-0.2-2.3-1.2-4.5-2.9-6.2c-0.4-0.4-0.8-0.8-1.3-1.1 l2.2-3.8L22,19C21.4,19.5,21,20.2,20.8,21L20.8,21z M23.5,22.3v1.3c-0.6-0.3-1-1-1-1.7c0-0.4,0.1-0.8,0.4-1.1l0.6,1.4 C23.5,22.2,23.5,22.2,23.5,22.3L23.5,22.3z M25.3,23.6v-1.3c0-0.1,0-0.1,0-0.2c0-0.2,0-0.4-0.1-0.6L24.5,20c1,0.1,1.8,0.9,1.8,1.9 C26.2,22.6,25.8,23.2,25.3,23.6L25.3,23.6z M32.7,18.9l0.4,1.3c0,0.2,0.1,0.3,0.3,0.4l2.1,2c0.2,0.2,0.4,0.3,0.6,0.3 c0.3,0,0.5-0.1,0.7-0.3c0.3-0.4,0.3-1-0.1-1.3l-1.9-1.8l-0.5-1.7c2.3-1.1,5.1-0.1,6.1,2.2c1.1,2.3,0.1,5.1-2.2,6.1 c-2.3,1.1-5.1,0.1-6.1-2.2c-0.3-0.6-0.4-1.3-0.4-1.9C31.6,20.8,32,19.7,32.7,18.9L32.7,18.9z M36.1,30.2c-4.5-0.1-8.1-3.8-8.1-8.3 c0-2.7,1.3-5.3,3.6-6.9l0.6,1.9c-1.5,1.2-2.3,3.1-2.3,5c0.1,3.5,3,6.2,6.4,6.1s6.2-3,6.1-6.4c-0.1-3.4-2.9-6.1-6.3-6.1 c-0.8,0-1.6,0.2-2.4,0.5l-0.5-1.8c0.9-0.4,1.9-0.5,2.9-0.5c4.6,0.1,8.2,3.9,8.1,8.5C44.1,26.5,40.5,30,36.1,30.2L36.1,30.2z M25.1,7.2c-0.3-0.4-0.9-0.4-1.2,0c0,0,0,0,0,0c-0.4,0.4-0.4,0.9,0,1.3c0.3,0.4,0.9,0.4,1.2,0c0,0,0,0,0,0 C25.5,8.1,25.5,7.5,25.1,7.2L25.1,7.2z"></path> </svg> 