<?xml version="1.0" encoding="UTF-8"?> <!-- Generator: Adobe Illustrator 21.0.0, SVG Export Plug-In . SVG Version: 6.00 Build 0) --> <svg xmlns="http://www.w3.org/2000/svg" xmlns:xlink="http://www.w3.org/1999/xlink" version="1.1" id="Layer_1" x="0px" y="0px" viewBox="0 0 512 512" style="enable-background:new 0 0 512 512;" xml:space="preserve"> <g> <g> <path style="fill:#E83A3A;" d="M436,421.8c-1.5-10.6-7.6-19.7-16.9-24.9L330.5,347c-13.6-7.6-30.7-5.3-41.7,5.7l-31.1,31.1 c-6.4,6.4-16.6,7.2-23.7,1.8c-21.5-16-42.5-34.2-62.4-54.1c-19.9-19.9-38.1-40.9-54.1-62.4c-5.3-7.2-4.5-17.4,1.8-23.7l31.1-31.1 c11-11,13.4-28.2,5.7-41.7l-49.8-88.6c-5.2-9.3-14.3-15.4-24.9-16.9c-11.1-1.5-22.2,2.2-30.3,10.3l-32.8,32.8 C-4.9,133.5-6.1,175,14.9,227.1C34.9,277,73.1,331.6,122.3,380.8c49.2,49.2,103.8,87.4,153.7,107.4c24.7,9.9,47,14.9,66.1,14.9 c21.2,0,38.5-6.1,50.7-18.3l32.8-32.8C433.8,443.9,437.5,432.9,436,421.8z M413.9,440.3l-5.7,5.7l-75.5-41.2 c-4-2.2-9.1-0.7-11.3,3.3c-2.2,4-0.7,9.1,3.3,11.3l71.2,38.8l-14.8,14.8c-17.9,17.9-54,17.8-98.9-0.2 c-47.9-19.2-100.5-56.1-148.2-103.8C86.4,321.4,49.5,268.8,30.3,220.9C12.2,176,12.1,139.9,30,122l14.8-14.8l7.9,14.6 c1.5,2.8,4.4,4.3,7.3,4.3c1.3,0,2.7-0.3,4-1c4-2.2,5.5-7.2,3.3-11.3L57.1,95l5.7-5.7c3.8-3.8,8.7-5.8,13.7-5.8 c0.9,0,1.7,0.1,2.6,0.2c5.4,0.7,10.1,3.9,12.7,8.6l49.8,88.6c4,7.1,2.8,16.1-3,21.8l-14.8,14.8l-38.8-71.2 c-2.2-4-7.2-5.5-11.3-3.3c-4,2.2-5.5,7.2-3.3,11.3l41.2,75.5l-4.1,4.1c-12.1,12.1-13.6,31.6-3.4,45.4 c16.4,22.1,35.2,43.8,55.7,64.3c20.5,20.5,42.1,39.2,64.3,55.7c13.7,10.2,33.2,8.7,45.4-3.4l4.1-4.1l18.8,10.3c1.3,0.7,2.6,1,4,1 c2.9,0,5.8-1.6,7.3-4.3c2.2-4,0.7-9.1-3.3-11.3l-14.6-7.9l14.8-14.8c5.8-5.8,14.7-7,21.8-3l88.6,49.8c4.7,2.7,7.9,7.3,8.6,12.7 C420.4,430,418.3,435.9,413.9,440.3z"></path> </g> </g> <g> <g> <path style="fill:#E83A3A;" d="M397.5,221.2h-9.4v-71.3c0-4.6-3.7-8.3-8.3-8.3c-4.6,0-8.3,3.7-8.3,8.3v71.3h-43.3l15.5-69.5 c1-4.5-1.8-8.9-6.3-9.9c-4.5-1-8.9,1.8-9.9,6.3l-17.7,79.6c-0.5,2.5,0.1,5,1.6,7c1.6,2,4,3.1,6.5,3.1h53.6v27.1 c0,4.6,3.7,8.3,8.3,8.3c4.6,0,8.3-3.7,8.3-8.3v-27.1h9.4c4.6,0,8.3-3.7,8.3-8.3C405.8,224.9,402.1,221.2,397.5,221.2z"></path> </g> </g> <g> <g> <path style="fill:#E83A3A;" d="M291.4,256.5h-61c3.6-9.5,13.8-15.5,28.5-23.6c18.2-9.9,40.8-22.3,40.8-50.3 c0-22.7-19.6-41.2-43.7-41.2s-43.7,18.5-43.7,41.2c0,4.6,3.7,8.3,8.3,8.3c4.6,0,8.3-3.7,8.3-8.3c0-13.5,12.2-24.6,27.1-24.6 c14.9,0,27.1,11,27.1,24.6c0,16.9-12.1,24.8-32.1,35.7c-18.1,9.9-38.6,21.1-38.6,46.4c0,4.6,3.7,8.3,8.3,8.3h70.8 c4.6,0,8.3-3.7,8.3-8.3S296,256.5,291.4,256.5z"></path> </g> </g> <g> <g> <path style="fill:#E83A3A;" d="M466.7,354l-16.2,3.2C489.8,319.1,512,267,512,211.8C512,99.9,421,8.8,309.1,8.8 c-65.9,0-128,32.2-166,86.2c-2.6,3.7-1.7,8.9,2,11.6c3.7,2.6,8.9,1.7,11.6-2c34.9-49.6,91.9-79.2,152.5-79.2 c102.7,0,186.3,83.6,186.3,186.3c0,51.5-21,100-58,135.1l3.7-18.5c0.9-4.5-2-8.9-6.5-9.8c-4.5-0.9-8.9,2-9.8,6.5l-8.8,44.2 c-0.5,2.7,0.3,5.5,2.3,7.5c1.6,1.6,3.7,2.4,5.9,2.4c0.5,0,1.1-0.1,1.6-0.2l44.2-8.8c4.5-0.9,7.4-5.3,6.5-9.8 C475.6,356,471.2,353.1,466.7,354z"></path> </g> </g> <g> <g> <path style="fill:#E83A3A;" d="M309.1,44.2c-4.6,0-8.3,3.7-8.3,8.3v17.7c0,4.6,3.7,8.3,8.3,8.3c4.6,0,8.3-3.7,8.3-8.3V52.5 C317.4,47.9,313.7,44.2,309.1,44.2z"></path> </g> </g> <g> <g> <path style="fill:#E83A3A;" d="M468.3,203.5h-17.7c-4.6,0-8.3,3.7-8.3,8.3c0,4.6,3.7,8.3,8.3,8.3h17.7c4.6,0,8.3-3.7,8.3-8.3 S472.9,203.5,468.3,203.5z"></path> </g> </g> <g> <g> <path style="fill:#E83A3A;" d="M190.6,133.8l-15.3-8.8c-4-2.3-9-0.9-11.3,3c-2.3,4-0.9,9,3,11.3l15.3,8.8c1.3,0.8,2.7,1.1,4.1,1.1 c2.9,0,5.7-1.5,7.2-4.1C196,141.2,194.6,136.1,190.6,133.8z"></path> </g> </g> <g> <g> <path style="fill:#E83A3A;" d="M451.1,284.2l-15.3-8.8c-4-2.3-9-0.9-11.3,3s-0.9,9,3,11.3l15.3,8.8c1.3,0.8,2.7,1.1,4.1,1.1 c2.9,0,5.7-1.5,7.2-4.1C456.5,291.6,455.1,286.5,451.1,284.2z"></path> </g> </g> <g> <g> <path style="fill:#E83A3A;" d="M392.8,66.7c-4-2.3-9-0.9-11.3,3L372.7,85c-2.3,4-0.9,9,3,11.3c1.3,0.8,2.7,1.1,4.1,1.1 c2.9,0,5.7-1.5,7.2-4.1l8.8-15.3C398.2,74,396.8,69,392.8,66.7z"></path> </g> </g> <g> <g> <path style="fill:#E83A3A;" d="M242.5,327.2c-4-2.3-9-0.9-11.3,3l-8.8,15.3c-2.3,4-0.9,9,3,11.3c1.3,0.8,2.7,1.1,4.1,1.1 c2.9,0,5.7-1.5,7.2-4.1l8.8-15.3C247.8,334.5,246.4,329.5,242.5,327.2z"></path> </g> </g> <g> <g> <path style="fill:#E83A3A;" d="M454.2,128c-2.3-4-7.4-5.3-11.3-3l-15.3,8.8c-4,2.3-5.3,7.4-3,11.3c1.5,2.7,4.3,4.1,7.2,4.1 c1.4,0,2.8-0.4,4.1-1.1l15.3-8.8C455.1,137,456.5,132,454.2,128z"></path> </g> </g> <g> <g> <path style="fill:#E83A3A;" d="M193.7,278.4c-2.3-4-7.4-5.3-11.3-3l-15.3,8.8c-4,2.3-5.3,7.4-3,11.3c1.5,2.7,4.3,4.1,7.2,4.1 c1.4,0,2.8-0.4,4.1-1.1l15.3-8.8C194.6,287.4,196,282.4,193.7,278.4z"></path> </g> </g> <g> <g> <path style="fill:#E83A3A;" d="M245.5,85l-8.8-15.3c-2.3-4-7.4-5.3-11.3-3c-4,2.3-5.3,7.4-3,11.3l8.8,15.3 c1.5,2.7,4.3,4.1,7.2,4.1c1.4,0,2.8-0.4,4.1-1.1C246.4,94.1,247.8,89,245.5,85z"></path> </g> </g> <g> <g> <path style="fill:#E83A3A;" d="M395.9,345.5l-8.8-15.3c-2.3-4-7.4-5.3-11.3-3c-4,2.3-5.3,7.4-3,11.3l8.8,15.3 c1.5,2.7,4.3,4.1,7.2,4.1c1.4,0,2.8-0.4,4.1-1.1C396.8,354.6,398.2,349.5,395.9,345.5z"></path> </g> </g> </svg> 