<svg width="99" height="41" viewBox="0 0 99 41" fill="none" xmlns="http://www.w3.org/2000/svg">
<path d="M18.285 12.1374H3.32454C1.49604 12.1374 0 13.6395 0 15.4755V25.4898C0 27.3257 1.49604 28.8279 3.32454 28.8279H15.4591L20.2797 33.6681C20.4459 33.835 20.6121 33.835 20.9446 33.835C21.1108 33.835 21.1108 33.835 21.277 33.835C21.6095 33.6681 21.7757 33.3343 21.7757 33.0005V15.4755C21.6095 13.6395 20.1135 12.1374 18.285 12.1374Z" fill="#B78DEB"/>
<path d="M23.2718 7.13025C21.4433 7.13025 8.31138 7.13025 8.31138 7.13025C6.48289 7.13025 4.98684 8.6324 4.98684 10.4684H18.285C21.1109 10.4684 23.2718 12.6381 23.2718 15.4755V26.6581L25.1003 28.4941C25.2665 28.661 25.4328 28.661 25.7652 28.661C25.9314 28.661 25.9314 28.661 26.0977 28.661C26.4301 28.4941 26.5963 28.1603 26.5963 27.8265C26.5963 27.8265 26.5963 12.3043 26.5963 10.4684C26.5963 8.6324 25.1003 7.13025 23.2718 7.13025Z" fill="#B78DEB"/>
<path d="M41.3462 27.7506C39.397 27.7506 37.8754 27.2123 36.7815 26.1355C35.7074 25.0392 35.1704 23.6003 35.1704 21.8188C35.1704 20.233 35.4886 18.843 36.1251 17.6488C36.7616 16.4546 37.587 15.5345 38.6014 14.8884C39.6158 14.2424 40.6799 13.9194 41.7938 13.9194C42.8877 13.9194 43.733 14.2424 44.3297 14.8884C44.9463 15.5149 45.2546 16.3274 45.2546 17.3258C45.2546 18.148 45.0657 18.843 44.6878 19.4108C44.3297 19.9785 43.8524 20.2624 43.2557 20.2624C42.8778 20.2624 42.5695 20.1743 42.3308 19.9981C42.112 19.8219 42.0026 19.5772 42.0026 19.2639C42.0026 19.1269 42.0225 18.9703 42.0623 18.7941C42.1021 18.6179 42.1319 18.4906 42.1518 18.4123C42.2512 18.1187 42.301 17.8446 42.301 17.5901C42.301 17.3356 42.2313 17.1398 42.0921 17.0028C41.9728 16.8657 41.7938 16.7972 41.5551 16.7972C41.0976 16.7972 40.67 17.0028 40.2722 17.4139C39.8744 17.8054 39.5561 18.3438 39.3175 19.029C39.0788 19.7142 38.9594 20.4679 38.9594 21.2902C38.9594 23.5611 39.9639 24.6966 41.9728 24.6966C42.7883 24.6966 43.6634 24.4323 44.5983 23.9037C45.553 23.3556 46.4878 22.5431 47.4027 21.4664C47.6414 21.1923 47.9099 21.0552 48.2083 21.0552C48.4669 21.0552 48.6658 21.1727 48.805 21.4076C48.9641 21.6426 49.0437 21.9656 49.0437 22.3767C49.0437 23.1206 48.8547 23.7275 48.4768 24.1974C47.542 25.3329 46.4182 26.2138 45.1054 26.8403C43.8126 27.4472 42.5595 27.7506 41.3462 27.7506Z" fill="#413972"/>
<path d="M63.1903 21.0552C63.4489 21.0552 63.6478 21.1727 63.787 21.4076C63.9461 21.6426 64.0257 21.9656 64.0257 22.3767C64.0257 23.1598 63.8367 23.7667 63.4588 24.1974C62.5439 25.235 61.5991 26.0866 60.6245 26.7522C59.6698 27.4178 58.5758 27.7506 57.3427 27.7506C56.3283 27.7506 55.5625 27.4668 55.0454 26.899C54.5282 26.3117 54.2697 25.4699 54.2697 24.3736C54.2697 23.8254 54.4089 22.8466 54.6874 21.437C54.9459 20.2036 55.0752 19.352 55.0752 18.8822C55.0752 18.5689 54.9658 18.4123 54.747 18.4123C54.4885 18.4123 54.1205 18.7451 53.6431 19.4108C53.1658 20.0568 52.6884 20.9182 52.2111 21.9949C51.7337 23.0717 51.3458 24.2072 51.0475 25.4014C50.6696 26.9675 49.7348 27.7506 48.243 27.7506C47.6463 27.7506 47.2485 27.5451 47.0496 27.134C46.8706 26.7033 46.7811 25.9397 46.7811 24.8434C46.7811 24.217 46.791 23.7177 46.8109 23.3458L46.8408 20.9965C46.8408 17.9816 47.1491 14.8395 47.7657 11.5701C48.4021 8.30072 49.327 5.55992 50.5403 3.3477C51.7735 1.1159 53.2453 0 54.9559 0C55.8708 0 56.6067 0.391544 57.1637 1.17463C57.7405 1.93814 58.0289 2.93658 58.0289 4.16994C58.0289 6.14723 57.4421 8.20283 56.2686 10.3367C55.0951 12.4511 53.1857 14.9276 50.5403 17.7663C50.4806 18.7843 50.4508 19.8317 50.4508 20.9084C51.1072 19.2444 51.8331 17.8935 52.6287 16.8559C53.4442 15.7988 54.2398 15.0451 55.0155 14.5948C55.8111 14.1445 56.5371 13.9194 57.1935 13.9194C58.4863 13.9194 59.1328 14.5556 59.1328 15.8281C59.1328 16.5917 58.914 17.9718 58.4764 19.9687C58.0985 21.6719 57.9095 22.7976 57.9095 23.3458C57.9095 24.1289 58.1979 24.5204 58.7747 24.5204C59.1725 24.5204 59.64 24.2855 60.177 23.8156C60.7339 23.3262 61.4698 22.5431 62.3848 21.4664C62.6235 21.1923 62.892 21.0552 63.1903 21.0552ZM54.3293 2.90721C53.9713 2.90721 53.5735 3.41622 53.1359 4.43423C52.6984 5.43266 52.2707 6.79328 51.853 8.51607C51.4552 10.2193 51.1271 12.0791 50.8685 14.0956C52.1017 12.6664 53.1161 11.11 53.9117 9.42641C54.7271 7.74277 55.1349 6.21575 55.1349 4.84535C55.1349 4.21888 55.0653 3.73924 54.926 3.40643C54.7868 3.07362 54.5879 2.90721 54.3293 2.90721Z" fill="#413972"/>
<path d="M65.2774 27.7506C64.0442 27.7506 63.0596 27.3102 62.3237 26.4292C61.5878 25.5482 61.2198 24.3932 61.2198 22.964C61.2198 21.3978 61.5878 19.9198 62.3237 18.5298C63.0596 17.1202 64.0342 15.9945 65.2475 15.1527C66.4807 14.2913 67.7835 13.8606 69.1559 13.8606C69.5935 13.8606 69.8819 13.9487 70.0211 14.1249C70.1802 14.2815 70.3095 14.5752 70.409 15.0059C70.8267 14.9276 71.2642 14.8884 71.7217 14.8884C72.6963 14.8884 73.1836 15.231 73.1836 15.9162C73.1836 16.3274 73.0345 17.3062 72.7361 18.8528C72.2786 21.1042 72.0499 22.6704 72.0499 23.5513C72.0499 23.845 72.1195 24.0799 72.2587 24.2561C72.4179 24.4323 72.6168 24.5204 72.8554 24.5204C73.2333 24.5204 73.6908 24.2855 74.2278 23.8156C74.7649 23.3262 75.4909 22.5431 76.4058 21.4664C76.6445 21.1923 76.913 21.0552 77.2113 21.0552C77.4699 21.0552 77.6688 21.1727 77.808 21.4076C77.9672 21.6426 78.0467 21.9656 78.0467 22.3767C78.0467 23.1598 77.8578 23.7667 77.4799 24.1974C76.6644 25.1958 75.7992 26.0376 74.8842 26.7228C73.9693 27.408 73.0842 27.7506 72.2289 27.7506C71.5725 27.7506 70.9659 27.5353 70.409 27.1046C69.8719 26.6543 69.4642 26.0474 69.1857 25.2839C68.1515 26.9284 66.8487 27.7506 65.2774 27.7506ZM66.3514 24.7847C66.789 24.7847 67.2067 24.5302 67.6045 24.0212C68.0023 23.5122 68.2907 22.8368 68.4697 21.9949L69.5736 16.5916C68.7382 16.6112 67.9625 16.9245 67.2465 17.5314C66.5503 18.1187 65.9934 18.9018 65.5757 19.8806C65.158 20.8595 64.9492 21.8971 64.9492 22.9934C64.9492 23.6003 65.0685 24.0506 65.3072 24.3442C65.5658 24.6379 65.9138 24.7847 66.3514 24.7847Z" fill="#413972"/>
<path d="M88.9283 21.0552C89.1869 21.0552 89.3858 21.1727 89.525 21.4076C89.6841 21.6426 89.7637 21.9656 89.7637 22.3767C89.7637 23.1598 89.5747 23.7667 89.1968 24.1974C88.3416 25.235 87.4067 26.0866 86.3923 26.7522C85.378 27.4178 84.2144 27.7506 82.9017 27.7506C78.8441 27.7506 76.8153 24.9413 76.8153 19.3227C76.8153 18.4613 76.8452 17.5901 76.9048 16.7091H75.7413C75.1446 16.7091 74.7368 16.6014 74.518 16.3861C74.3191 16.1707 74.2197 15.8281 74.2197 15.3583C74.2197 14.262 74.6672 13.7138 75.5623 13.7138H77.2629C77.601 11.5603 78.1181 9.59281 78.8143 7.81129C79.5104 6.02977 80.3458 4.61042 81.3204 3.55325C82.3149 2.49609 83.379 1.96751 84.5127 1.96751C85.3481 1.96751 86.0045 2.32968 86.4819 3.05404C86.9592 3.77839 87.1979 4.68873 87.1979 5.78505C87.1979 8.81952 85.905 11.4624 83.3194 13.7138H86.6609C86.9791 13.7138 87.2078 13.7823 87.3471 13.9194C87.4863 14.0564 87.5559 14.3109 87.5559 14.6829C87.5559 16.0337 86.4321 16.7091 84.1846 16.7091H80.5447C80.5049 17.688 80.485 18.4515 80.485 18.9996C80.485 21.0357 80.7237 22.4648 81.2011 23.287C81.6983 24.1093 82.474 24.5204 83.5282 24.5204C84.3835 24.5204 85.1393 24.2659 85.7957 23.7569C86.452 23.2479 87.2277 22.4844 88.1228 21.4664C88.3615 21.1923 88.63 21.0552 88.9283 21.0552ZM83.7072 4.78662C83.4089 4.78662 83.0707 5.15858 82.6928 5.90252C82.3348 6.62687 81.9867 7.64488 81.6486 8.95655C81.3304 10.2486 81.0618 11.6876 80.8431 13.2733C82.0166 12.2749 82.8917 11.159 83.4685 9.92562C84.0652 8.67269 84.3636 7.53721 84.3636 6.5192C84.3636 5.36414 84.1448 4.78662 83.7072 4.78662Z" fill="#413972"/>
<path d="M97.7767 13.9194C98.2342 13.9194 98.5524 13.9781 98.7314 14.0956C98.9104 14.213 98.9999 14.4088 98.9999 14.6829C98.9999 15.1527 98.7414 16.8266 98.2242 19.7044C97.7668 22.4648 97.4983 24.0995 97.4187 24.6085C96.6828 29.6398 95.6684 33.6238 94.3755 36.5604C93.0827 39.4969 91.3622 40.9652 89.2141 40.9652C88.1997 40.9652 87.3743 40.652 86.7378 40.0255C86.1013 39.4186 85.7831 38.616 85.7831 37.6175C85.7831 36.6974 85.9919 35.7577 86.4096 34.7984C86.8472 33.8391 87.6428 32.733 88.7964 31.4801C89.9699 30.2467 91.6208 28.8274 93.749 27.222L93.8385 26.5466C93.9777 25.8223 94.1368 24.7847 94.3159 23.4339C93.9181 24.8434 93.3611 25.9202 92.6451 26.6641C91.9291 27.3885 91.1732 27.7506 90.3777 27.7506C89.4826 27.7506 88.7467 27.3493 88.1699 26.5466C87.6129 25.7244 87.3345 24.7064 87.3345 23.4926C87.3345 22.0243 87.4339 20.6833 87.6328 19.4695C87.8317 18.2361 88.1599 16.9342 88.6174 15.5638C88.8163 14.9765 89.0947 14.5556 89.4528 14.3011C89.8108 14.0466 90.3776 13.9194 91.1534 13.9194C91.5909 13.9194 91.8893 13.9879 92.0484 14.1249C92.2274 14.262 92.3169 14.4675 92.3169 14.7416C92.3169 14.8982 92.2075 15.4268 91.9887 16.3274C91.7898 17.0517 91.6307 17.7076 91.5114 18.2949C91.3523 19.0975 91.213 19.8708 91.0937 20.6148C90.9743 21.3391 90.9147 21.9362 90.9147 22.4061C90.9147 23.15 91.1235 23.522 91.5412 23.522C91.8396 23.522 92.2075 23.2283 92.6451 22.641C93.1026 22.0537 93.5799 21.1629 94.0772 19.9687C94.5943 18.7745 95.0916 17.3062 95.5689 15.5638C95.7281 14.9765 95.9667 14.5556 96.285 14.3011C96.6231 14.0466 97.1203 13.9194 97.7767 13.9194ZM89.5423 38.1167C90.0395 38.1167 90.5964 37.549 91.213 36.4135C91.8296 35.2781 92.4462 33.3889 93.0628 30.7459C91.5313 32.0185 90.4174 33.1735 89.7213 34.2111C89.045 35.2683 88.7069 36.1884 88.7069 36.9715C88.7069 37.3043 88.7666 37.5784 88.8859 37.7937C89.0251 38.0091 89.2439 38.1167 89.5423 38.1167Z" fill="#413972"/>
</svg>
