<?xml version="1.0" encoding="UTF-8"?> <!-- Generator: Adobe Illustrator 21.0.0, SVG Export Plug-In . SVG Version: 6.00 Build 0) --> <svg xmlns="http://www.w3.org/2000/svg" xmlns:xlink="http://www.w3.org/1999/xlink" version="1.1" id="shape" x="0px" y="0px" viewBox="0 0 22 40" style="enable-background:new 0 0 22 40;" xml:space="preserve"> <path id="bike-computer" style="fill:#E83A3A;" d="M21.2,23.6c-0.4,0-0.8,0.4-0.8,0.8v4.1c0,1.3-1,2.4-2.3,2.4H3.9 c-1.3,0-2.4-1.1-2.3-2.4V11.5c0-1.3,1-2.4,2.3-2.4h14.2c1.3,0,2.4,1.1,2.3,2.4v5.5c0,0.4,0.3,0.8,0.7,0.8c0.4,0,0.8-0.3,0.8-0.7 c0,0,0,0,0-0.1v-5.5c0-1.7-1.1-3.3-2.8-3.8l-1.7-5.4C17.1,0.9,15.8,0,14.4,0H7.6C6.1,0,4.9,0.9,4.5,2.3L2.7,7.7 C1.1,8.2,0,9.7,0,11.5v17.1c0,1.7,1.1,3.3,2.8,3.8l1.7,5.4C4.9,39.1,6.1,40,7.6,40h6.8c1.4,0,2.7-0.9,3.1-2.3l1.7-5.4 c1.6-0.5,2.8-2.1,2.8-3.8v-4.1C22,24,21.6,23.6,21.2,23.6z M5.3,4.7h4.5c0.4,0,0.8-0.4,0.8-0.8c0-0.4-0.3-0.8-0.8-0.8h-4l0.1-0.3 c0.2-0.7,0.9-1.2,1.7-1.2h6.8c0.8,0,1.4,0.5,1.7,1.2l1.5,4.7H4.4L5.3,4.7z M16.1,37.2c-0.2,0.7-0.9,1.2-1.7,1.2H7.6 c-0.8,0-1.4-0.5-1.7-1.2l-1.5-4.7h13.2L16.1,37.2z M21.8,20c-0.3-0.3-0.8-0.3-1.1,0c0,0,0,0,0,0c-0.1,0.1-0.2,0.3-0.2,0.5 c0,0.2,0.1,0.4,0.2,0.5c0.3,0.3,0.8,0.3,1.1,0c0,0,0,0,0,0c0.1-0.1,0.2-0.3,0.2-0.5C22,20.4,21.9,20.2,21.8,20L21.8,20z M13.3,3.3 c-0.3-0.3-0.8-0.3-1.1,0c0,0,0,0,0,0c-0.3,0.3-0.3,0.8,0,1.1c0.3,0.3,0.8,0.3,1.1,0c0,0,0,0,0,0C13.6,4.2,13.6,3.7,13.3,3.3 L13.3,3.3z M14,12.8c-1.7,1.5-4.3,1.5-6,0c-2.8,0.1-5,2.5-4.9,5.3c0,1.7,1.3,3.7,3.8,6.1c1.2,1.1,2.4,2,3.7,2.9 c0.3,0.2,0.6,0.2,0.8,0c1.3-0.9,2.5-1.9,3.7-2.9c2.5-2.3,3.8-4.4,3.8-6.1C19,15.3,16.8,12.9,14,12.8L14,12.8z M14.1,23 c-1,0.9-2,1.7-3.1,2.5c-1.1-0.8-2.1-1.6-3.1-2.5c-0.9-0.8-1.8-1.8-2.5-2.8h2.3c0.3,0,0.6-0.2,0.7-0.5l0.3-0.9l2.5,3.8 c0.1,0.2,0.4,0.3,0.6,0.3H12c0.3,0,0.5-0.2,0.6-0.5l0.9-2.2h3C15.8,21.2,15,22.2,14.1,23L14.1,23z M13,18.7c-0.3,0-0.6,0.2-0.7,0.5 l-0.6,1.4l-2.6-3.9c-0.2-0.3-0.7-0.4-1.1-0.2c-0.1,0.1-0.2,0.2-0.3,0.4l-0.6,1.9H4.7c0-0.2-0.1-0.4-0.1-0.6c-0.1-2,1.4-3.6,3.4-3.8 c0.9,0,1.8,0.4,2.4,1.2c0.3,0.3,0.8,0.3,1.1,0.1c0,0,0.1,0,0.1-0.1c0.6-0.7,1.5-1.2,2.4-1.2c2,0.1,3.5,1.8,3.4,3.8 c0,0.2,0,0.4-0.1,0.6H13L13,18.7z"></path> </svg> 