<?xml version="1.0" encoding="UTF-8"?> <!-- Generator: Adobe Illustrator 21.0.0, SVG Export Plug-In . SVG Version: 6.00 Build 0) --> <svg xmlns="http://www.w3.org/2000/svg" xmlns:xlink="http://www.w3.org/1999/xlink" version="1.1" id="shape" x="0px" y="0px" viewBox="0 0 30 34" style="enable-background:new 0 0 30 34;" xml:space="preserve"> <path id="bike-equipment" style="fill:#E83A3A;" d="M29.5,25.2c-0.1-0.3-0.5-0.5-0.8-0.4c0,0,0,0,0,0c-0.3,0.1-0.5,0.5-0.4,0.9 c0.3,0.7,0.4,1.4,0.4,2.1V30h-4.1v-4c0-0.4-0.3-0.7-0.6-0.7c-0.4,0-0.7,0.3-0.7,0.6c0,0,0,0,0,0.1v1.4l-0.4,0.4 c-1.2,1.3-2,3-2.1,4.8h-5.1v-6.1c0-0.4-0.3-0.7-0.6-0.7c-0.4,0-0.7,0.3-0.7,0.6c0,0,0,0,0,0.1v6.1H9.2c-0.1-1.8-0.9-3.5-2.1-4.8 l-0.4-0.4V26c0-0.4-0.3-0.7-0.7-0.7S5.4,25.7,5.4,26v4H1.3v-2.2c0-2.8,1.9-5.3,4.6-5.9l5.2-1.3c2.2,2,5.5,2,7.7,0l5.2,1.2 c0.3,0.1,0.6,0.2,0.9,0.3c0.1,0,0.2,0,0.3,0c0.4,0,0.7-0.3,0.7-0.7c0-0.3-0.2-0.5-0.4-0.6c-0.4-0.2-0.7-0.3-1.1-0.4l-5.4-1.3V18 c1.6-0.9,2.5-2.6,2.6-4.4c1.2-0.1,2.1-1.1,2.1-2.3c0-0.6-0.2-1.2-0.7-1.6c0.3-0.4,0.5-0.8,0.5-1.3c0-4.6-3.7-8.3-8.3-8.4h-0.3 c-4.6,0-8.3,3.8-8.3,8.4c0,0.5,0.2,0.9,0.5,1.3c-0.4,0.4-0.7,1-0.7,1.6c0,1.2,0.9,2.2,2.1,2.3c0,1.8,1,3.5,2.5,4.4v1.4l-5.4,1.3 c-1.6,0.4-3,1.3-4.1,2.6c-1,1.3-1.6,2.9-1.6,4.6v5.5C0,33.7,0.3,34,0.6,34h28.7c0.4,0,0.7-0.3,0.7-0.7v-5.5 C30,27,29.8,26.1,29.5,25.2z M15,20.8c-1,0-1.9-0.3-2.7-0.9c0,0,0-0.1,0-0.1v-1.3c0.4,0.1,0.9,0.2,1.4,0.2h2.6 c0.4,0,0.9-0.1,1.3-0.2v1.3c0,0,0,0.1,0,0.1C16.9,20.5,15.9,20.8,15,20.8L15,20.8z M20.2,11.1c0,0.4-0.2,0.8-0.5,1.1 c-0.3,0.3-0.6,0.4-1,0.4h-1.1l2.2-2.3c0,0,0,0,0,0h0.3L20.2,11.1L20.2,11.1L20.2,11.1z M16.1,12.3c-0.4-0.6-1.2-0.9-1.8-0.5 c-0.2,0.1-0.4,0.3-0.5,0.5c-0.1,0.2-0.3,0.4-0.6,0.4h-1.4l2.2-2.3c0,0,0,0,0,0H18L16.1,12.3z M21.5,12.2v-1.8 c0.5,0.1,0.9,0.6,0.8,1.1C22.2,11.8,21.9,12.2,21.5,12.2z M19.2,2.7c0.3,0.2,0.6,0.5,0.9,0.8l-1.4,1.1L19.2,2.7z M10.8,2.7l0.4,1.9 L9.8,3.5C10.1,3.2,10.4,2.9,10.8,2.7z M8.5,11.2v1.1c-0.5-0.1-0.9-0.6-0.8-1.1c0.1-0.4,0.4-0.7,0.8-0.8V11.2z M8.5,9 C8.2,9,7.9,8.7,7.9,8.4C7.9,7,8.3,5.7,9,4.5l2.1,1.7c0.2,0.1,0.4,0.2,0.6,0.2c0.2,0,0.4-0.1,0.5-0.2c0.4-0.2,0.5-0.6,0.4-1L11.9,2 c0.8-0.4,1.6-0.6,2.4-0.6V6c0,0.4,0.3,0.7,0.6,0.7c0.4,0,0.7-0.3,0.7-0.6c0,0,0,0,0-0.1V1.4C16.5,1.4,17.3,1.6,18,2l-0.8,3.3 c-0.1,0.4,0.1,0.8,0.4,1c0.2,0.1,0.3,0.2,0.5,0.2c0.2,0,0.4-0.1,0.6-0.2L21,4.5c0.7,1.1,1.1,2.5,1.1,3.8c0,0.4-0.3,0.7-0.7,0.7 L8.5,9L8.5,9z M9.8,10.4h2.5l-1.9,2c0,0-0.1,0-0.1-0.1C10,12,9.8,11.6,9.8,11.2V10.4L9.8,10.4L9.8,10.4z M9.8,13.6 c0.4,0.3,1,0.4,1.5,0.4h1.9c0.7,0,1.4-0.4,1.8-1.1c0,0,0,0,0,0c0.3,0.7,1,1.1,1.8,1.1h1.9c0.5,0,1-0.2,1.5-0.4 c0,1.3-0.7,2.5-1.8,3.2c-0.6,0.4-1.4,0.6-2.1,0.6h-2.6c-0.5,0-1-0.1-1.4-0.3c-0.2-0.1-0.4-0.2-0.7-0.3C10.5,16,9.8,14.8,9.8,13.6 L9.8,13.6z M5.4,32.7H1.3v-1.3h4.1L5.4,32.7L5.4,32.7L5.4,32.7z M6.7,32.7v-3.2c0.7,0.9,1.1,2,1.2,3.2H6.7L6.7,32.7z M23.2,32.7 h-1.2c0.1-1.1,0.5-2.2,1.2-3.2L23.2,32.7L23.2,32.7z M28.7,32.7h-4.1v-1.3h4.1V32.7z M28,22.8C28,22.8,28,22.8,28,22.8 c-0.3-0.3-0.7-0.3-1-0.1c0,0,0,0,0,0c-0.3,0.3-0.3,0.7,0,0.9l0,0c0.2,0.3,0.7,0.3,0.9,0c0,0,0,0,0,0C28.2,23.5,28.3,23,28,22.8 L28,22.8z M15.5,23.5c-0.3-0.3-0.7-0.3-0.9,0c-0.1,0.1-0.2,0.3-0.2,0.5c0,0.2,0.1,0.3,0.2,0.5c0.1,0.1,0.3,0.2,0.5,0.2 c0.2,0,0.3-0.1,0.5-0.2c0.1-0.1,0.2-0.3,0.2-0.5C15.6,23.8,15.6,23.6,15.5,23.5L15.5,23.5z"></path> </svg> 